<?xml version="1.0" encoding="UTF-8"?>
<svg width="48px" height="48px" viewBox="0 0 48 48" version="1.1" xmlns="http://www.w3.org/2000/svg" xmlns:xlink="http://www.w3.org/1999/xlink">
    <title>B70C2951-7AB7-4370-B049-1BD07B82470F</title>
    <defs>
        <polygon id="path-1" points="2.8e-05 0.16492 41.83508 0.16492 41.83508 42 2.8e-05 42"></polygon>
    </defs>
    <g id="CHAT-TANIA" stroke="none" stroke-width="1" fill="none" fill-rule="evenodd">
        <g id="CHAT-TANIA-09" transform="translate(-904.000000, -424.000000)">
            <g id="Group-2" transform="translate(776.000000, 208.000000)">
                <g id="icon-/-48-/-cara-feliz" transform="translate(128.000000, 216.000000)">
                    <g id="Group-11" transform="translate(3.000000, 3.000000)">
                        <g id="Group-3">
                            <mask id="mask-2" fill="white">
                                <use xlink:href="#path-1"></use>
                            </mask>
                            <g id="Clip-2"></g>
                            <path d="M20.917428,42.000112 C9.365468,42.000112 2.8e-05,32.634672 2.8e-05,21.082432 C2.8e-05,9.529912 9.365468,0.164752 20.917428,0.164752 C32.469948,0.164752 41.835108,9.529912 41.835108,21.082432 C41.835108,32.634672 32.469948,42.000112 20.917428,42.000112 Z" id="Fill-1" fill="#5EEDC7" mask="url(#mask-2)"></path>
                        </g>
                        <path d="M8.50632911,27.8376314 L10.5197089,26.5822785 C12.8148388,30.1123934 16.7327595,32.2194461 21.0004197,32.2194461 C25.2680798,32.2194461 29.1851612,30.1129414 31.4802911,26.5836487 L33.4936709,27.8392756 C30.7581491,32.0462562 26.087869,34.556962 21.0004197,34.556962 C15.912131,34.556962 11.2418509,32.0457081 8.50632911,27.8376314 Z" id="Fill-4" fill="#00A7A8"></path>
                        <g id="Group-10" transform="translate(10.101266, 12.759494)" fill="#00A7A8">
                            <path d="M3.21223913,5.81270633 C1.58224143,5.81270633 0.259672957,4.5122 0.259672957,2.90759241 C0.259672957,1.30270633 1.58224143,0.0022 3.21223913,0.0022 C4.84308608,0.0022 6.16593763,1.30270633 6.16593763,2.90759241 C6.16593763,4.5122 4.84308608,5.81270633 3.21223913,5.81270633 Z" id="Fill-6"></path>
                            <path d="M18.700586,5.81270633 C17.0700221,5.81270633 15.7471705,4.5122 15.7471705,2.90759241 C15.7471705,1.30270633 17.0700221,0.0022 18.700586,0.0022 C20.3311498,0.0022 21.6534352,1.30270633 21.6534352,2.90759241 C21.6534352,4.5122 20.3311498,5.81270633 18.700586,5.81270633 Z" id="Fill-8"></path>
                        </g>
                    </g>
                    <rect id="Rectangle" fill="#D8D8D8" opacity="0" x="0" y="0" width="48" height="48"></rect>
                </g>
            </g>
        </g>
    </g>
</svg>