<?xml version="1.0" encoding="UTF-8"?>
<svg width="48px" height="48px" viewBox="0 0 48 48" version="1.1" xmlns="http://www.w3.org/2000/svg" xmlns:xlink="http://www.w3.org/1999/xlink">
    <title>D7EA60DA-5F63-452E-B98A-1F49A2E517A7</title>
    <g id="CHAT-TANIA" stroke="none" stroke-width="1" fill="none" fill-rule="evenodd">
        <g id="CHAT-TANIA-09" transform="translate(-1048.000000, -424.000000)">
            <g id="Group-2" transform="translate(776.000000, 208.000000)">
                <g id="icon-/-48-/-cara-insatisfecho" transform="translate(272.000000, 216.000000)">
                    <g id="Group-11" transform="translate(3.000000, 3.000000)">
                        <g id="Group-3" transform="translate(0.000000, 0.112249)" fill="#A6469D">
                            <path d="M41.999916,21.1616384 C41.999916,32.7594966 32.5977742,42.1616384 20.999916,42.1616384 C9.40290107,42.1616384 -8.4e-05,32.7594966 -8.4e-05,21.1616384 C-8.4e-05,9.56349905 9.40290107,0.1616384 20.999916,0.1616384 C32.5977742,0.1616384 41.999916,9.56349905 41.999916,21.1616384" id="Fill-1"></path>
                        </g>
                        <path d="M20.916196,25.949616 C26.008276,25.949616 30.682316,28.4593369 33.419876,32.6626471 L31.404996,33.9176444 C29.108436,30.3905653 25.187596,28.285488 20.916196,28.285488 C16.645916,28.285488 12.725636,30.3902916 10.428796,33.9160018 L8.413916,32.6618258 C11.151476,28.4587893 15.825516,25.949616 20.916196,25.949616" id="Fill-4" fill="#55125C"></path>
                        <g id="Group-10" transform="translate(10.080000, 12.432249)" fill="#55125C">
                            <path d="M6.098344,2.85889707 C6.098344,4.4366784 4.790464,5.71494684 3.177384,5.71494684 C1.564584,5.71494684 0.256704,4.4366784 0.256704,2.85889707 C0.256704,1.28084196 1.564584,0.00284728889 3.177384,0.00284728889 C4.790464,0.00284728889 6.098344,1.28084196 6.098344,2.85889707" id="Fill-6"></path>
                            <path d="M21.417816,2.85889707 C21.417816,4.4366784 20.109936,5.71494684 18.496856,5.71494684 C16.883776,5.71494684 15.575896,4.4366784 15.575896,2.85889707 C15.575896,1.28084196 16.883776,0.00284728889 18.496856,0.00284728889 C20.109936,0.00284728889 21.417816,1.28084196 21.417816,2.85889707" id="Fill-8"></path>
                        </g>
                    </g>
                    <g>
                        <g id="Group-11" transform="translate(3.000000, 3.000000)">
                            <g id="Group-3" transform="translate(0.000000, 0.112249)" fill="#F2608D">
                                <path d="M41.999916,21.1616384 C41.999916,32.7594966 32.5977742,42.1616384 20.999916,42.1616384 C9.40290107,42.1616384 -8.4e-05,32.7594966 -8.4e-05,21.1616384 C-8.4e-05,9.56349905 9.40290107,0.1616384 20.999916,0.1616384 C32.5977742,0.1616384 41.999916,9.56349905 41.999916,21.1616384" id="Fill-1"></path>
                            </g>
                            <path d="M20.916196,25.949616 C26.008276,25.949616 30.682316,28.4593369 33.419876,32.6626471 L31.404996,33.9176444 C29.108436,30.3905653 25.187596,28.285488 20.916196,28.285488 C16.645916,28.285488 12.725636,30.3902916 10.428796,33.9160018 L8.413916,32.6618258 C11.151476,28.4587893 15.825516,25.949616 20.916196,25.949616" id="Fill-4" fill="#B7006F"></path>
                            <g id="Group-10" transform="translate(10.080000, 12.432249)" fill="#B7006F">
                                <path d="M6.098344,2.85889707 C6.098344,4.4366784 4.790464,5.71494684 3.177384,5.71494684 C1.564584,5.71494684 0.256704,4.4366784 0.256704,2.85889707 C0.256704,1.28084196 1.564584,0.00284728889 3.177384,0.00284728889 C4.790464,0.00284728889 6.098344,1.28084196 6.098344,2.85889707" id="Fill-6"></path>
                                <path d="M21.417816,2.85889707 C21.417816,4.4366784 20.109936,5.71494684 18.496856,5.71494684 C16.883776,5.71494684 15.575896,4.4366784 15.575896,2.85889707 C15.575896,1.28084196 16.883776,0.00284728889 18.496856,0.00284728889 C20.109936,0.00284728889 21.417816,1.28084196 21.417816,2.85889707" id="Fill-8"></path>
                            </g>
                        </g>
                        <rect id="Rectangle" fill="#D8D8D8" opacity="0" x="0" y="0" width="48" height="48"></rect>
                    </g>
                </g>
            </g>
        </g>
    </g>
</svg>