<?xml version="1.0" encoding="UTF-8"?>
<svg width="16px" height="16px" viewBox="0 0 16 16" version="1.1" xmlns="http://www.w3.org/2000/svg" xmlns:xlink="http://www.w3.org/1999/xlink">
    <title>3D5C7A1C-EA51-4B6C-B504-46AB8A0A3B1A</title>
    <g id="CHAT-TANIA" stroke="none" stroke-width="1" fill="none" fill-rule="evenodd">
        <g id="CHAT-TANIA-08" transform="translate(-1188.000000, -261.000000)" fill="#737F87">
            <g id="CHAT-TANIA" transform="translate(776.000000, 233.000000)">
                <g id="Group" transform="translate(412.000000, 28.000000)">
                    <path d="M1,1 C0.44771525,1.55228475 0.44771525,2.44771525 1,3 L13,15 C13.5522847,15.5522847 14.4477153,15.5522847 15,15 C15.5522847,14.4477153 15.5522847,13.5522847 15,13 L3,1 C2.44771525,0.44771525 1.55228475,0.44771525 1,1 Z" id="Rectangle"></path>
                    <path d="M15,1 C15.5522847,1.55228475 15.5522847,2.44771525 15,3 L3,15 C2.44771525,15.5522847 1.55228475,15.5522847 1,15 C0.44771525,14.4477153 0.44771525,13.5522847 1,13 L13,1 C13.5522847,0.44771525 14.4477153,0.44771525 15,1 Z" id="Rectangle"></path>
                </g>
            </g>
        </g>
    </g>
</svg>