<?xml version="1.0" encoding="UTF-8"?>
<svg width="48px" height="48px" viewBox="0 0 48 48" version="1.1" xmlns="http://www.w3.org/2000/svg" xmlns:xlink="http://www.w3.org/1999/xlink">
    <title>35548CEB-56AF-4F89-A6D0-DE1299E1DDA1</title>
    <defs>
        <polygon id="path-1" points="0.00032 0.00032 31.9936 0.00032 31.9936 31.9952 0.00032 31.9952"></polygon>
    </defs>
    <g id="CHAT-TANIA" stroke="none" stroke-width="1" fill="none" fill-rule="evenodd">
        <g id="CHAT-TANIA-05" transform="translate(-1160.000000, -712.000000)">
            <g id="CHAT-TANIA" transform="translate(776.000000, 233.000000)">
                <g id="PIE" transform="translate(0.000000, 447.000000)">
                    <g id="Group-11" transform="translate(0.000000, 16.000000)">
                        <g id="icon/enviar/32x32" transform="translate(384.000000, 16.000000)">
                            <rect id="Rectangle" fill="#D8D8D8" opacity="0" x="0" y="0" width="48" height="48"></rect>
                            <g id="Group-3" transform="translate(8.000000, 8.000000)">
                                <mask id="mask-2" fill="white">
                                    <use xlink:href="#path-1"></use>
                                </mask>
                                <g id="Clip-2"></g>
                                <path d="M28.9914416,4.32325724 C28.9844402,4.19303193 28.9606356,4.06700743 28.9158269,3.94518374 C28.9032244,3.90177531 28.8878214,3.85976714 28.8682176,3.81775897 C28.7996043,3.66792985 28.7155879,3.52650235 28.5951645,3.40607894 C28.4747411,3.28565553 28.3319134,3.20023893 28.1820842,3.13302586 C28.1414763,3.11342205 28.0994682,3.09801906 28.05746,3.08401633 C27.9328358,3.04060789 27.8040107,3.01540299 27.6723851,3.00840163 C27.6415792,3.00700136 27.6135737,3 27.5813675,3 C27.4413402,3.00280054 27.2999127,3.02240436 27.1612858,3.06721307 L1.95778619,11.4688464 C1.38507486,11.6606836 1,12.1941874 1,12.7977047 C1,13.401222 1.38507486,13.936126 1.95778619,14.126563 L13.8951068,18.1061367 L17.8760807,30.0448576 C18.0665178,30.6161686 18.6000215,31.0012435 19.2035388,31.0012435 C19.8056558,31.0012435 20.3391596,30.6161686 20.5309969,30.0448576 L28.9326301,4.83995769 C28.9774388,4.70133074 28.9984429,4.56130352 29,4.4212763 C29.0012435,4.38766976 28.9928418,4.35686378 28.9914416,4.32325724 L28.9914416,4.32325724 Z M22.4213643,7.59989423 L14.6246486,15.3966099 L6.82793296,12.7977047 L22.4213643,7.59989423 Z M19.2035388,25.1733105 L16.6032333,17.3779951 L24.4013493,9.57987914 L19.2035388,25.1733105 Z" id="Fill-1" fill="#D5006C" mask="url(#mask-2)"></path>
                            </g>
                        </g>
                    </g>
                </g>
            </g>
        </g>
    </g>
</svg>