<svg width="21" height="22" viewBox="0 0 21 22" fill="none" 
    xmlns="http://www.w3.org/2000/svg">
    <path fill-rule="evenodd" clip-rule="evenodd" d="M1.69538 0.842091C1.32169 0.468408 0.715834 0.468408 0.342151 0.842091C-0.0315313 1.21577 -0.0315308 1.82163 0.342152 2.19532L9.13814 10.9913L0.342201 19.7872C-0.0314817 20.1609 -0.0314818 20.7668 0.342201 21.1405C0.715884 21.5141 1.32174 21.5141 1.69543 21.1405L10.4914 12.3445L19.2873 21.1405C19.661 21.5141 20.2668 21.5141 20.6405 21.1405C21.0142 20.7668 21.0142 20.1609 20.6405 19.7872L11.8446 10.9913L20.6406 2.19532C21.0143 1.82163 21.0143 1.21578 20.6406 0.842092C20.2669 0.46841 19.661 0.46841 19.2873 0.842093L10.4914 9.63808L1.69538 0.842091Z" fill="#F4F4F4"/>
</svg>
