<svg width="32" height="32" xmlns="http://www.w3.org/2000/svg">
 <metadata id="metadata8">image/svg+xml</metadata>

 <g>
  <title>background</title>
  <rect fill="none" id="canvas_background" height="34" width="34" y="-1" x="-1"/>
 </g>
 <g>
  <title>Layer 1</title>
  <path fill="#2857af" fill-rule="evenodd" d="m16.000346,0.114038c-8.809519,0 -15.950051,7.112286 -15.950051,15.884787c0,3.623154 1.217579,6.961269 3.265975,9.63342l13.261167,-17.355022l-1.42622,0.002073l-1.418174,0c-1.514032,0 -2.933316,0.104178 -3.955849,0.303967c-0.620928,0.121863 -1.174852,0.346385 -1.62515,0.661682c-0.52937,0.368077 -1.192609,1.15328 -1.623485,1.922456c-0.050357,0.090638 -0.122493,0.225489 -0.216687,0.409113l-0.776576,-0.170636l1.300536,-4.987001l16.608989,0l-13.196105,17.574846c0.858839,-0.075577 1.200239,-0.091743 1.894968,-0.091743c0.53589,0 1.348257,0.031778 2.435713,0.097131l2.345404,0.138167c0.846354,0.050707 1.558979,0.07613 2.100279,0.07613c1.211753,0 1.999565,-0.092848 2.777806,-0.329805c0.605807,-0.184038 1.182898,-0.462031 1.708523,-0.821956c0.923901,-0.636397 1.826161,-1.66132 2.36538,-2.687901c0.054241,-0.10252 0.138169,-0.259063 0.238466,-0.47115l0.701665,0.181413c-0.224871,0.869485 -0.349445,1.201915 -0.699029,1.98021c-0.70985,1.578696 -1.508067,2.634845 -2.609118,3.446577c-1.129906,0.833285 -2.383276,1.243503 -3.863182,1.26561l-0.225426,0.001658c-1.096751,0 -1.945324,-0.09119 -4.568731,-0.491184c-2.671405,-0.407455 -4.029928,-0.546174 -5.37222,-0.546174c-0.899624,0 -1.734603,0.066458 -2.598436,0.205178c-1.145998,0.184591 -1.594769,0.318337 -2.635198,0.790039c2.91542,3.164992 7.102522,5.150038 11.754765,5.150038c8.808964,0 15.949358,-7.11353 15.949358,-15.887136c0,-8.772501 -7.140394,-15.884787 -15.949358,-15.884787l0,0" id="path14"/>
 </g>
</svg>