<svg height="512pt" viewBox="0 0 512 512" width="512pt" xmlns="http://www.w3.org/2000/svg"><path d="m512 256c0 141.386719-114.613281 256-256 256s-256-114.613281-256-256 114.613281-256 256-256 256 114.613281 256 256zm0 0" fill="#54fbff"/><path d="m512 256c0-33.09375-6.28125-64.714844-17.710938-93.75l-94.273437-94.546875c-5.667969-6.347656-13.914063-10.347656-23.097656-10.347656-17.101563 0-30.964844 13.863281-30.964844 30.964843 0 3.703126.652344 7.25 1.84375 10.542969-59.882813 8.003907-230.851563 49.085938-238.621094 257.335938h-9.460937c-15.542969 0-28.261719 12.71875-28.261719 28.265625 0 8.210937 3.546875 15.632812 9.1875 20.808594 0 0 51.59375 51.65625 93.292969 93.289062 25.761718 8.714844 53.363281 13.4375 82.066406 13.4375 141.386719 0 256-114.613281 256-256zm0 0" fill="#00d9e0"/><path d="m368.289062 96.953125s-259.398437 6.820313-259.398437 274.097656h259.722656s-46.90625-72.910156-.324219-274.097656zm0 0" fill="#005fd2"/><path d="m368.609375 371.050781h-110.839844v-246.75c57.871094-25.960937 110.519531-27.351562 110.519531-27.351562-46.578124 201.191406.320313 274.101562.320313 274.101562zm0 0" fill="#00459f"/><path d="m371.863281 412.726562h-272.148437c-15.542969 0-28.261719-12.714843-28.261719-28.261718 0-15.542969 12.71875-28.261719 28.261719-28.261719h272.148437c15.546875 0 28.265625 12.71875 28.265625 28.261719 0 15.546875-12.71875 28.261718-28.265625 28.261718zm0 0" fill="#00a6ff"/><path d="m407.886719 88.320312c0 17.105469-13.863281 30.96875-30.96875 30.96875-17.101563 0-30.964844-13.863281-30.964844-30.96875 0-17.101562 13.863281-30.964843 30.964844-30.964843 17.105469 0 30.96875 13.863281 30.96875 30.964843zm0 0" fill="#006ef5"/><g fill="#ffe670"><path d="m166.597656 281.753906 8.550782 17.5625 19.347656 2.703125-14.066406 13.558594 3.410156 19.238281-17.242188-9.1875-17.242187 9.1875 3.410156-19.238281-14.066406-13.558594 19.351562-2.703125zm0 0"/><path d="m228.144531 209.078125 8.027344 16.5 18.175781 2.539063-13.210937 12.734374 3.203125 18.070313-16.195313-8.628906-16.199219 8.628906 3.203126-18.070313-13.210938-12.734374 18.171875-2.539063zm0 0"/><path d="m231.886719 159.390625 17.242187-9.1875 17.238282 9.1875-3.40625-19.238281 14.0625-13.558594-18.566407-2.59375c-8.644531 3.855469-17.414062 8.253906-26.144531 13.277344l2.984375 2.875zm0 0"/></g><path d="m262.960938 140.148438 3.410156 19.242187-8.601563-4.582031v-30.5c.230469-.109375.460938-.207032.691407-.308594l18.570312 2.589844zm0 0" fill="#ffd400"/><path d="m337.671875 175.140625-19.347656 2.703125 14.0625 13.558594-3.40625 19.238281 17.238281-9.1875 4.128906 2.199219c.917969-9.601563 2.101563-19.679688 3.582032-30.238282l-7.710938-15.839843zm0 0" fill="#ffd400"/><path d="m292.90625 281.753906 8.550781 17.5625 19.347657 2.703125-14.066407 13.558594 3.410157 19.238281-17.242188-9.1875-17.242188 9.1875 3.410157-19.238281-14.0625-13.558594 19.347656-2.703125zm0 0" fill="#ffd400"/><path d="m400.128906 384.46875c0 7.769531-3.179687 14.839844-8.300781 19.960938-5.117187 5.121093-12.1875 8.300781-19.957031 8.300781h-114.101563v-56.53125h114.101563c15.539062 0 28.257812 12.722656 28.257812 28.269531zm0 0" fill="#006ef5"/></svg>