<?xml version="1.0" encoding="utf-8"?>
<!-- Generator: Adobe Illustrator 22.1.0, SVG Export Plug-In . SVG Version: 6.00 Build 0)  -->
<svg version="1.1" id="Layer_1" xmlns="http://www.w3.org/2000/svg" xmlns:xlink="http://www.w3.org/1999/xlink" x="0px" y="0px"
	 viewBox="0 0 539.3 160.5" style="enable-background:new 0 0 539.3 160.5;" xml:space="preserve">
<style type="text/css">
	.st0{fill:#0F265C;}
	.st1{fill:#FFDD00;}
</style>
<path class="st0" d="M329.3,64.7h-9.9v47.1h10L329.3,64.7L329.3,64.7z M277.4,64.7h-10v47.1h10V92.4h19.8v19.5h10V64.7h-4.9
	c-2.8,0-5.1,2.3-5.1,5.1v13.4h-19.8V64.7z M204.9,64.7h-10v47.1h10V64.7z M166.4,74c6.9,0,10.2,2,10.2,6.8c0,4.6-3.4,7-10.2,7H159
	V74H166.4z M168.1,64.7H149v47.1h10V97h9.1c5.4,0,9.9-1.5,13.3-4.5c3.4-3,5.1-7,5.1-11.9c0-4.8-1.7-8.7-5-11.5
	C178.1,66.2,173.7,64.7,168.1,64.7 M177.5,32.5c0,4-2.9,5.4-8.5,5.4h-10V27.3h10.3C174.7,27.3,177.5,29,177.5,32.5 M176.4,14
	c0,3.2-2.6,4.8-7.8,4.8H159V9.2h9.1C174,9.2,176.4,10.5,176.4,14 M181.6,22.6c3.2-2.5,4.8-5.7,4.8-9.5c0-8.4-6.4-13-16.3-13H149
	v47.1h22.3c4.9,0,8.8-1.3,11.8-3.8c3-2.6,4.5-5.9,4.5-10C187.6,29,185.6,25.4,181.6,22.6 M220.6,29h-11.7l5.8-15.4L220.6,29z
	 M227.6,47.1H238L220.8,3.2C220,1.3,218.1,0,216,0h-6l-18.4,47.1H202l3.7-9.3h18.2L227.6,47.1z M238.7,64c-7.1,0-12.9,2.2-17.6,6.7
	c-4.7,4.4-7.1,10.4-7.1,17.7c0,7.3,2.4,13.1,7.1,17.6c4.8,4.4,10.8,6.7,18,6.7c7.9,0,14.3-3,19.2-8.9l-6.7-7.1
	c-3.2,4.4-7.5,6.6-12.8,6.6c-4.1,0-7.5-1.3-10.3-4s-4.2-6.4-4.2-11s1.4-8.2,4.2-10.8c2.8-2.7,6.1-4,9.8-4c3.6,0,6.9,1.2,9.5,3.2
	c2,1.6,4.9,1.3,6.7-0.5l3.1-3.1C252.7,67,246.4,64,238.7,64 M277.2,47.1h9.1V0h-9.9v31.9L258.8,2.5C257.9,1,256.2,0,254.4,0h-9.1
	v47.1h10V15.3l17.5,29.3C273.8,46.2,275.4,47.1,277.2,47.1 M309.8,34.5c-2.8-2.7-4.2-6.4-4.2-11s1.4-8.2,4.2-10.8
	c2.8-2.7,6.1-4,9.7-4s6.9,1.2,9.6,3.2c2,1.6,4.8,1.2,6.6-0.6l3.1-3.1c-4.8-5.9-11-8.9-18.8-8.9c-7.1,0-12.9,2.2-17.6,6.7
	c-4.7,4.4-7.1,10.4-7.1,17.7s2.4,13.1,7.1,17.5c4.8,4.4,10.8,6.7,17.9,6.7c7.9,0,14.3-3,19.2-8.9l-6.7-7.1
	c-3.2,4.4-7.5,6.6-12.8,6.6C316,38.5,312.6,37.2,309.8,34.5 M350.8,64.7h-9.1v47.1h10V80.1l17.6,29.3c0.9,1.5,2.6,2.5,4.4,2.5h9.1
	V64.7h-10v31.9l-17.6-29.5C354.2,65.7,352.6,64.7,350.8,64.7 M383,23.5c0,4.2-1.3,7.7-3.8,10.6c-2.5,2.9-5.9,4.3-10.2,4.3
	c-4.4,0-7.8-1.4-10.4-4.3s-3.8-6.4-3.8-10.6s1.3-7.7,3.8-10.6c2.6-2.9,6-4.3,10.4-4.3c4.1,0,7.4,1.5,10,4.4S383,19.4,383,23.5
	 M386.1,41c4.7-4.6,7.1-10.4,7.1-17.5c0-7-2.4-12.8-7.1-17.3c-4.7-4.6-10.5-6.9-17.3-6.9s-12.6,2.3-17.2,6.9s-7,10.4-7,17.3
	c0,7.1,2.4,12.8,7,17.5c4.6,4.6,10.4,6.9,17.2,6.9C375.6,47.9,381.3,45.6,386.1,41 M406.2,99.2c-2.8-2.7-4.2-6.4-4.2-11
	s1.4-8.2,4.2-10.8c2.8-2.7,6.1-4,9.8-4c3.6,0,6.9,1.2,9.6,3.2c2,1.6,4.8,1.2,6.6-0.6l3.1-3.1c-4.8-5.9-11-8.9-18.8-8.9
	c-7.1,0-12.9,2.2-17.6,6.7c-4.7,4.4-7.1,10.4-7.1,17.7s2.4,13.1,7.1,17.6c4.8,4.4,10.8,6.7,18,6.7c7.9,0,14.3-3,19.2-8.9l-6.7-7.1
	c-3.2,4.4-7.5,6.6-12.8,6.6C412.4,103.3,409,101.9,406.2,99.2 M474.9,111.9h10V64.7H480c-2.8,0-5.1,2.3-5.1,5.1v13.4h-19.8V64.7h-10
	v47.1h10V92.4h19.8V111.9z M521.9,93.7h-11.7l5.9-15.4L521.9,93.7z M539.3,111.9L522.1,68c-0.8-1.9-2.6-3.2-4.7-3.2h-6.1l-18.4,47.1
	h10.4l3.7-9.3h18.2l3.8,9.3H539.3z"/>
<path class="st1" d="M70.4,0H0v74.4c0,20.7,16.8,37.5,37.5,37.5h74.4V0H70.4z"/>
<polygon class="st0" points="93.3,55.9 76.4,55.9 76.4,35.5 55.9,35.5 55.9,18.6 93.3,18.6 "/>
<g>
	<path class="st0" d="M148.6,154v2.3c2.2,0.5,3.7,0.7,5.1,0.7c3.4,0,4.5-1.8,4.5-3.5c0-2.6-3-3.3-5-3.9c-3-0.8-6.2-2.4-6.2-5.7
		c0-3.6,2.9-4.9,6.5-4.9c2.1,0,4.1,0.3,6.4,1v3.8h-1.7v-2.4c-2.1-0.5-3.3-0.6-4.7-0.6c-3.2,0-4.3,1.5-4.3,3.1c0,2.5,3.2,3.5,5.2,4
		c3,0.7,5.9,2.1,5.9,5.4c0,3.7-2.9,5.5-6.7,5.5c-2.1,0-4.5-0.3-6.7-1V154H148.6z"/>
	<path class="st0" d="M165.4,151.6c0.1,3.2,1.4,5.4,5.1,5.4c1.4,0,2.8-0.1,4.4-0.6l0.3,1.6c-1.7,0.5-3.1,0.6-4.9,0.6
		c-5.1,0-6.9-3-6.9-7.3c0-4.3,1.8-7.3,6.7-7.3c4.3,0,5.5,2.5,5.5,5.4c0,0.7-0.1,1.4-0.2,2.2H165.4z M165.4,150.3h8
		c0.1-0.5,0.1-0.8,0.1-1.3c0-1.8-0.9-3.4-3.6-3.4C166.7,145.6,165.6,147.7,165.4,150.3z"/>
	<path class="st0" d="M184.8,145.8h-2.2v-1.3l2.2-0.1l0.3-4h1.7v4h4.2v1.4h-4.2v8.2c0,2.1,0.6,3.1,2.6,3.1c0.5,0,0.9,0,1.6-0.1
		l0.2,1.6c-0.7,0.1-1.8,0.2-2.4,0.2c-2.7,0-3.9-1.1-3.9-4.4V145.8z"/>
	<path class="st0" d="M193.1,144.3h3.9v2.3h0.1c1.3-1.3,3.3-2.5,5.5-2.5v1.9c-2.2,0-4.5,1.1-5.6,1.9v9h2.3v1.7h-6.2v-1.7h1.9V146
		h-1.9V144.3z"/>
	<path class="st0" d="M206,147.9v-3.3c1.9-0.4,3.8-0.6,5.3-0.6c3.3,0,5.1,1,5.1,4.6v8.1h1.9v1.7h-3.9V157h-0.1
		c-1.4,1.1-2.7,1.7-4.5,1.7c-2.3,0-4.7-1.2-4.7-4c0-3.4,3-4.3,6-4.3h3.3v-1.6c0-2.1-1-3.1-3.5-3.1c-0.7,0-1.7,0.1-3.2,0.3v1.9H206z
		 M214.4,151.6h-3c-3.1,0-4.2,1-4.2,2.9c0,1.6,1.2,2.7,3.4,2.7c1.9,0,3.2-0.8,3.9-1.4V151.6z"/>
	<path class="st0" d="M221.7,145.8h-2.2v-1.3l2.2-0.1l0.3-4h1.7v4h4.2v1.4h-4.2v8.2c0,2.1,0.6,3.1,2.6,3.1c0.5,0,0.9,0,1.6-0.1
		l0.2,1.6c-0.7,0.1-1.8,0.2-2.4,0.2c-2.7,0-3.9-1.1-3.9-4.4V145.8z"/>
	<path class="st0" d="M231.7,147.9v-3.3c1.9-0.4,3.8-0.6,5.3-0.6c3.3,0,5.1,1,5.1,4.6v8.1h1.9v1.7H240V157H240
		c-1.4,1.1-2.7,1.7-4.5,1.7c-2.3,0-4.7-1.2-4.7-4c0-3.4,3-4.3,6-4.3h3.3v-1.6c0-2.1-1-3.1-3.5-3.1c-0.7,0-1.7,0.1-3.2,0.3v1.9H231.7
		z M240,151.6h-3c-3.1,0-4.2,1-4.2,2.9c0,1.6,1.2,2.7,3.4,2.7c1.9,0,3.2-0.8,3.9-1.4V151.6z"/>
	<path class="st0" d="M259,138.7h3.9v18.1h1.9v1.7h-3.9V157h-0.1c-1.1,1-2.7,1.7-4.5,1.7c-4,0-5.3-3.2-5.3-7.3
		c0-4.1,1.4-7.3,5.4-7.3c1.7,0,3.3,0.6,4.4,1.6h0.1v-5.3H259V138.7z M257.1,157c1.7,0,3.2-0.8,3.8-1.4v-8.6
		c-0.6-0.5-2.1-1.4-3.8-1.4c-3,0-3.9,2.7-3.9,5.7C253.2,154.4,254.1,157,257.1,157z"/>
	<path class="st0" d="M269,151.6c0.1,3.2,1.4,5.4,5.1,5.4c1.4,0,2.8-0.1,4.4-0.6l0.3,1.6c-1.7,0.5-3.1,0.6-4.9,0.6
		c-5.1,0-6.9-3-6.9-7.3c0-4.3,1.8-7.3,6.7-7.3c4.3,0,5.5,2.5,5.5,5.4c0,0.7-0.1,1.4-0.2,2.2H269z M269,150.3h8
		c0.1-0.5,0.1-0.8,0.1-1.3c0-1.8-0.9-3.4-3.6-3.4C270.3,145.6,269.2,147.7,269,150.3z"/>
	<path class="st0" d="M288.4,145.8h-2.2v-1.3l2.2-0.1l0.3-4h1.7v4h4.2v1.4h-4.2v8.2c0,2.1,0.6,3.1,2.6,3.1c0.5,0,0.9,0,1.6-0.1
		l0.2,1.6c-0.7,0.1-1.8,0.2-2.4,0.2c-2.7,0-3.9-1.1-3.9-4.4V145.8z"/>
	<path class="st0" d="M296.7,144.3h3.9v12.4h1.9v1.7h-5.9v-1.7h1.9V146h-1.9V144.3z M300.6,138.7v3.4h-2v-3.4H300.6z"/>
	<path class="st0" d="M306.9,155v3.4h-2V155H306.9z"/>
</g>
</svg>
