<?xml version="1.0" encoding="utf-8"?>
<!-- Generator: Adobe Illustrator 24.0.3, SVG Export Plug-In . SVG Version: 6.00 Build 0)  -->
<svg version="1.1" id="Capa_1" xmlns="http://www.w3.org/2000/svg" xmlns:xlink="http://www.w3.org/1999/xlink" x="0px" y="0px"
	 viewBox="0 0 512 512" style="enable-background:new 0 0 512 512;" xml:space="preserve">
<style type="text/css">
	.st0{fill:#BED8FB;}
	.st1{fill:#DDEAFB;}
	.st2{fill:#CBE2FF;}
	.st3{fill:#E0172F;}
	.st4{fill:#DA4A54;}
	.st5{fill:#FFFFFF;}
</style>
<g>
	<path class="st0" d="M117.2,154.7v124.7h-98v-89.8c0-19.3,15.6-34.9,34.9-34.9h17.9H117.2z"/>
	<path class="st1" d="M491.7,197v274.4c0,22.7-18.4,41.1-41.1,41.1H113.2c-19.4,0-35.6-13.4-40-31.5L73,457.5l-1-139.9v-276
		c0-22.7,18.4-41.1,41.1-41.1h182c16.4,0,69.3,45.2,116.2,92.7C454.1,136.7,491.7,182.1,491.7,197L491.7,197z"/>
	<path class="st2" d="M491.7,197v100.5c0-0.1,0-0.2,0-0.4c-3.1-123.3-103.6-129-136.4-161.9l56.1-42.1
		C454.1,136.7,491.7,182.1,491.7,197L491.7,197z"/>
	<path class="st2" d="M295.2,0.5H194.7c0.1,0,0.2,0,0.4,0c123.3,3.1,129,103.6,161.9,136.4L399,80.9C355.5,38.1,310.1,0.5,295.2,0.5
		L295.2,0.5z"/>
	<path class="st0" d="M491.7,197v17.4c0-36.6-29.7-66.3-66.3-66.3h-40.3c-22.7,0-41.1-18.4-41.1-41.1V66.8
		c0-36.6-29.7-66.3-66.3-66.3h17.4c31.3,0,61.3,12.4,83.4,34.6l78.5,78.5C479.3,135.7,491.7,165.8,491.7,197L491.7,197z"/>
	<path class="st2" d="M350.2,311.4v92.1c0,29.8-24.2,54-54,54H73l-1-139.9v-60.2h224.2C326,257.5,350.2,281.6,350.2,311.4z"/>
	<path class="st3" d="M466.9,471.8c-0.9-1.8-3.2-2.6-6.9-2.6c-2.2,0-4.8,0.3-7.9,0.8c-4.3-4.5-8.8-11.1-12-17.6
		c0.3-1.4,0.7-2.8,0.9-4.2c0.4-1.9,0.7-3.9,0.9-5.8c0.2-2,0.2-4.1-0.9-5.9c-0.6-1-1.8-2.4-3-2.4c-0.5,0-1.9,0.2-2.4,0.4
		c-1.4,0.4-2.1,1.5-2.7,2.8c-1.7,3.9,0.6,10.4,3,15.5c-2,7.9-5.4,17.4-8.9,25.1c-9,4.1-13.7,8-14.1,11.8c-0.2,1.4,0.2,3.4,2.6,5.2
		c0.7,0.5,1.5,0.8,2.3,0.8c2.1,0,4.2-1.6,6.6-4.9c1.8-2.4,3.7-5.8,5.6-9.9c6.3-2.7,14.2-5.2,20.9-6.6c3.7,3.5,7.1,5.3,9.9,5.3
		c2.1,0,3.9-1,5.2-2.8C467.4,475,467.7,473.3,466.9,471.8z M417.8,491.8c-1.1-0.8-1-1.4-1-1.6c0.1-1.3,2.2-3.6,7.3-6.4
		C420.2,490.7,418.2,491.7,417.8,491.8z M437.2,438.3c0.1,0,2.5,2.6,0.2,7.5C434,442.4,436.9,438.4,437.2,438.3z M432.3,475.7
		c2.4-5.6,4.6-11.9,6.3-17.6c2.7,4.7,5.8,9.3,9,12.9C442.6,472.1,437.2,473.8,432.3,475.7z M462.8,474.6c-0.7,1-2.3,1-2.9,1
		c-1.3,0-1.7-0.7-3.7-2.2c1.6-0.2,3.1-0.3,4.3-0.3c2.1,0,2.5,0.3,2.8,0.5C463.3,473.8,463.1,474.1,462.8,474.6z"/>
	<path class="st3" d="M385.1,278.5v92.1c0,29.8-24.2,54-54,54h-277c-1,0-2.1,0-3.1-0.1c-17.9-1.5-31.9-16.5-31.9-34.8V189.6
		c0,9.6,3.9,18.4,10.2,24.7c5.6,5.6,13.2,9.4,21.6,10.1c1,0.1,2,0.1,3.1,0.1h277C361,224.6,385.1,248.7,385.1,278.5z"/>
	<path class="st4" d="M51.1,224.4v200.1c-17.9-1.5-31.9-16.5-31.9-34.8V189.6c0,9.6,3.9,18.4,10.2,24.7
		C35.1,220,42.7,223.7,51.1,224.4L51.1,224.4z"/>
	<g>
		<path class="st5" d="M322.7,283.1c4.3,0,7.7-3.5,7.7-7.7s-3.5-7.7-7.7-7.7h-39.8c-4.3,0-7.7,3.5-7.7,7.7v98.3
			c0,4.3,3.5,7.7,7.7,7.7s7.7-3.5,7.7-7.7v-42.3h28.9c4.3,0,7.7-3.5,7.7-7.7s-3.5-7.7-7.7-7.7h-28.9v-32.8L322.7,283.1L322.7,283.1z
			"/>
		<path class="st5" d="M209.4,267.6h-27.8c-2.1,0-4,0.8-5.5,2.3c-1.4,1.5-2.3,3.4-2.3,5.5v0.1v0V372c0,0.6,0.1,1.2,0.2,1.7
			c0,2,0.9,3.9,2.3,5.3c1.4,1.4,3.4,2.2,5.4,2.2h0c0.8,0,20.7-0.1,28.6-0.2c13.7-0.2,25.9-6.5,34.4-17.5
			c7.8-10.2,12.1-24.1,12.1-39.2C256.8,290.5,237.8,267.6,209.4,267.6L209.4,267.6z M210.1,365.7c-4.7,0.1-14,0.1-20.6,0.2
			c0-11.3-0.1-31.9-0.1-41.5c0-8,0-29.6-0.1-41.3h20.1c15.5,0,32,10.9,32,41.4C241.4,348.4,228.5,365.4,210.1,365.7L210.1,365.7z"/>
		<path class="st5" d="M125,266.9H97.4c-2.1,0-4,0.8-5.5,2.3c-1.4,1.4-2.2,3.4-2.3,5.4c0,0,0,0,0,0v99c0,4.3,3.5,7.7,7.7,7.7
			c4.3,0,7.7-3.5,7.7-7.7v-35.3c6.4,0,15.3-0.1,19.8-0.1c20,0,36.2-16,36.2-35.7S145,266.9,125,266.9L125,266.9z M125,322.8
			c-4.5,0-13.3,0-19.7,0.1c0-6.6-0.1-15.7-0.1-20.3c0-3.9,0-13.4,0-20.2H125c11.3,0,20.8,9.3,20.8,20.2S136.3,322.8,125,322.8z"/>
	</g>
</g>
</svg>
